<svg width="21" height="22" viewBox="0 0 21 22" fill="none" xmlns="http://www.w3.org/2000/svg">
<path fill-rule="evenodd" clip-rule="evenodd" d="M2.9465 21.1921C3.39775 21.3681 4.07617 21.576 5.32505 21.6328C6.67504 21.6952 7.08072 21.707 10.4997 21.707C13.9199 21.707 14.3256 21.6946 15.6756 21.6328C16.9245 21.576 17.6029 21.3681 18.0541 21.1921C18.652 20.9593 19.0789 20.6822 19.5271 20.2341C19.9752 19.786 20.2523 19.3597 20.4851 18.7618C20.6599 18.3105 20.8689 17.6321 20.9257 16.3832C20.9875 15.032 21 14.6263 21 11.2073C21 7.78713 20.9875 7.38269 20.9257 6.03146C20.8689 4.78258 20.6611 4.10415 20.4851 3.65291C20.2523 3.055 19.9758 2.62809 19.5271 2.17997C19.0783 1.73185 18.652 1.45349 18.0541 1.22194C17.6016 1.04718 16.9245 0.838098 15.6756 0.781302C14.3243 0.720762 13.9199 0.707031 10.4997 0.707031C7.08072 0.707031 6.67504 0.719514 5.32443 0.781302C4.07555 0.838098 3.39712 1.04593 2.94588 1.22194C2.34734 1.45349 1.92106 1.73185 1.47294 2.17997C1.02544 2.62934 0.747704 3.05562 0.514905 3.65353C0.340149 4.10603 0.131067 4.78321 0.0742711 6.03208C0.0137308 7.38332 0 7.78775 0 11.208C0 14.6282 0.0124825 15.0332 0.0748952 16.3832C0.131691 17.6321 0.339525 18.3105 0.515529 18.7618C0.74708 19.3597 1.02482 19.786 1.47356 20.2341C1.92231 20.6822 2.34859 20.9593 2.9465 21.1921ZM10.4258 8.82464C9.15088 8.82464 8.11763 9.85844 8.11763 11.1334C8.11763 12.4083 9.15088 13.4421 10.4258 13.4421C11.7007 13.4421 12.7345 12.4083 12.7345 11.1334C12.7345 9.85844 11.7007 8.82464 10.4258 8.82464ZM10.4258 14.6896C8.46169 14.6896 6.86958 13.0975 6.86958 11.1334H6.86963C6.86963 9.16915 8.46169 7.57714 10.4258 7.57714C12.3899 7.57714 13.982 9.16926 13.982 11.1334C13.982 13.0975 12.3899 14.6896 10.4258 14.6896ZM13.4317 7.89791C13.3404 7.7612 13.2917 7.60051 13.2918 7.43613C13.292 7.21581 13.3796 7.00457 13.5354 6.8488C13.6913 6.69304 13.9025 6.60549 14.1229 6.60539H14.1232C14.2876 6.60546 14.4482 6.65426 14.5849 6.74564C14.7215 6.83701 14.828 6.96685 14.8908 7.11874C14.9536 7.27062 14.97 7.43773 14.9379 7.59893C14.9058 7.76013 14.8266 7.90818 14.7103 8.02436C14.594 8.14054 14.4459 8.21963 14.2847 8.25164C14.1235 8.28364 13.9564 8.26712 13.8045 8.20415C13.6527 8.14119 13.5229 8.03462 13.4317 7.89791ZM6.34173 16.5325C6.58563 16.6275 6.95263 16.74 7.62785 16.7707V16.7708C8.35764 16.8044 8.57633 16.8111 10.4258 16.8111C12.2753 16.8111 12.4946 16.8044 13.2246 16.7708C13.8998 16.7401 14.2669 16.6277 14.5107 16.5326C14.834 16.4067 15.0651 16.2566 15.3073 16.0145C15.5495 15.7725 15.6995 15.5418 15.8254 15.2185C15.9198 14.9746 16.0328 14.6076 16.0636 13.9324C16.0972 13.2017 16.1039 12.9831 16.1039 11.1336C16.1039 9.28411 16.0972 9.06543 16.0636 8.3348C16.0329 7.65958 15.9204 7.29247 15.8254 7.04869C15.6995 6.72534 15.5499 6.4943 15.3073 6.25207C15.0648 6.00984 14.834 5.85936 14.5107 5.73404C14.2662 5.63985 13.8998 5.52655 13.2246 5.4958C12.494 5.46255 12.2744 5.45541 10.4258 5.45541C8.57716 5.45541 8.35787 5.46211 7.62785 5.49568C6.95263 5.52638 6.58552 5.63885 6.34173 5.73393C6.01784 5.85925 5.78735 6.0094 5.54512 6.25196C5.30289 6.49453 5.15296 6.72523 5.02708 7.04858C4.9329 7.29308 4.81959 7.65947 4.78884 8.33469C4.75582 9.06532 4.74856 9.284 4.74856 11.1335C4.74856 12.983 4.75527 13.2022 4.78884 13.9323C4.81954 14.6075 4.93201 14.9746 5.02708 15.2184C5.15241 15.5417 5.30256 15.7722 5.54512 16.0144C5.78768 16.2567 6.01839 16.4066 6.34173 16.5325ZM5.88946 4.57136C6.32943 4.40016 6.83323 4.28326 7.57051 4.24968H7.57078C8.30961 4.21555 8.54613 4.20774 10.4266 4.20774C12.3071 4.20774 12.5431 4.21594 13.2817 4.24968C14.0184 4.2827 14.5219 4.40016 14.9627 4.57136C15.4175 4.74816 15.8041 4.98474 16.189 5.37019C16.5738 5.75565 16.8105 6.14165 16.9878 6.59703C17.159 7.037 17.2759 7.54074 17.3095 8.27807C17.3431 9.01651 17.3509 9.25259 17.3509 11.1334C17.3509 13.0141 17.3431 13.2497 17.3095 13.9887C17.2765 14.7259 17.159 15.2295 16.9878 15.6697C16.8105 16.1251 16.5744 16.5117 16.189 16.8965C15.8035 17.2814 15.4175 17.5181 14.9621 17.6954C14.5219 17.8666 14.0184 17.9835 13.2811 18.017C12.5427 18.0512 12.3066 18.059 10.4258 18.059C8.54502 18.059 8.30933 18.0506 7.57051 18.017C6.83323 17.9835 6.33026 17.8666 5.88946 17.6954C5.43353 17.5181 5.04803 17.2812 4.66263 16.8965C4.27723 16.5119 4.0406 16.1251 3.8638 15.6697C3.6926 15.2295 3.57569 14.726 3.54212 13.9887C3.50799 13.2502 3.50018 13.0141 3.50018 11.1334C3.50018 9.25259 3.50799 9.01651 3.54212 8.27807C3.57569 7.54079 3.6926 7.03727 3.8638 6.59703C4.0406 6.1411 4.27718 5.75504 4.66263 5.37019C5.04808 4.98535 5.43409 4.74816 5.88946 4.57136Z" fill="black"/>
</svg>
